<svg xmlns="http://www.w3.org/2000/svg" viewBox="0 0 1024 1024" width="1024" height="1024">
  <defs>
    <linearGradient id="bg" x1="0%" y1="100%" x2="100%" y2="0%">
      <stop offset="0%" stop-color="#08111C"/>
      <stop offset="50%" stop-color="#102038"/>
      <stop offset="100%" stop-color="#0B1320"/>
    </linearGradient>
  </defs>

  <rect width="1024" height="1024" rx="224" fill="url(#bg)"/>

  <g transform="translate(0 8)">
    <path
      d="M170.667 588.444C170.667 358.696 358.696 170.667 588.444 170.667c126.72 0 240.356 56.889 316.8 146.204"
      fill="none"
      stroke="#2BE4D0"
      stroke-linecap="round"
      stroke-width="75.852"/>
    <path
      d="M284.444 654.667c42.519 102.163 143.585 174.104 261.689 174.104 155.496 0 280.86-126.162 280.86-280.86"
      fill="none"
      stroke="#7AA2FF"
      stroke-linecap="round"
      stroke-width="56.889"/>
    <path d="M531.911 474.074l170.667-170.667 28.444 28.444-151.704 208.593z" fill="#2BE4D0"/>
    <path d="M522.43 512l85.333 85.333-180.148 123.259-28.445-28.444z" fill="#CFFBFF"/>
    <path d="M749.985 284.444h75.852l-37.926 66.37z" fill="#FFB454"/>
    <path
      d="M199.111 739.556c75.852-37.926 170.667-56.889 274.963-56.889 106.193 0 204.8 19.911 286.341 54.993"
      fill="none"
      stroke="#FFFFFF"
      stroke-linecap="round"
      stroke-opacity="0.16"
      stroke-width="37.926"/>
  </g>
</svg>
